<mxfile host="app.diagrams.net" modified="2020-07-18T17:29:32.754Z" agent="5.0 (Macintosh; Intel Mac OS X 10_15_4) AppleWebKit/605.1.15 (KHTML, like Gecko) Version/13.1.1 Safari/605.1.15" etag="7Np5OXhR7zKVhvDrsx_d" version="13.4.6" type="github">
  <diagram id="MX-Q0ajEodeUbmX2hPma" name="Page-1">
    <mxGraphModel dx="554" dy="516" grid="1" gridSize="10" guides="1" tooltips="1" connect="1" arrows="1" fold="1" page="1" pageScale="1" pageWidth="827" pageHeight="1169" math="0" shadow="0">
      <root>
        <mxCell id="0" />
        <mxCell id="1" parent="0" />
        <mxCell id="jBmK6phHeobHz-66WZZ4-3" style="edgeStyle=orthogonalEdgeStyle;rounded=0;orthogonalLoop=1;jettySize=auto;html=1;" edge="1" parent="1" source="jBmK6phHeobHz-66WZZ4-1" target="jBmK6phHeobHz-66WZZ4-2">
          <mxGeometry relative="1" as="geometry" />
        </mxCell>
        <mxCell id="jBmK6phHeobHz-66WZZ4-1" value="Time stamp&lt;br&gt;Feature&lt;br&gt;Zone groups" style="shape=process;whiteSpace=wrap;html=1;backgroundOutline=1;" vertex="1" parent="1">
          <mxGeometry x="40" y="80" width="120" height="60" as="geometry" />
        </mxCell>
        <mxCell id="jBmK6phHeobHz-66WZZ4-2" value="Time stamp&lt;br&gt;Feature&lt;br&gt;Zones" style="shape=process;whiteSpace=wrap;html=1;backgroundOutline=1;" vertex="1" parent="1">
          <mxGeometry x="200" y="80" width="120" height="60" as="geometry" />
        </mxCell>
        <mxCell id="jBmK6phHeobHz-66WZZ4-4" value="" style="shape=process;whiteSpace=wrap;html=1;backgroundOutline=1;" vertex="1" parent="1">
          <mxGeometry x="70" y="200" width="120" height="60" as="geometry" />
        </mxCell>
        <mxCell id="jBmK6phHeobHz-66WZZ4-6" value="FeatureId&lt;br&gt;ZoneId&lt;br&gt;First&lt;br&gt;Last" style="shape=cylinder;whiteSpace=wrap;html=1;boundedLbl=1;backgroundOutline=1;" vertex="1" parent="1">
          <mxGeometry x="250" y="185" width="110" height="90" as="geometry" />
        </mxCell>
      </root>
    </mxGraphModel>
  </diagram>
</mxfile>
